<?xml version="1.0" encoding="UTF-8"?>
<svg width="154px" height="108px" viewBox="0 0 154 108" version="1.1" xmlns="http://www.w3.org/2000/svg" xmlns:xlink="http://www.w3.org/1999/xlink">
    <!-- Generator: Sketch 57.1 (83088) - https://sketch.com -->
    <title>logo-footer</title>
    <desc>Created with Sketch.</desc>
    <defs>
        <path d="M7.095,106.075 C6.8749989,106.72767 6.49916932,107.229998 5.9675,107.582 C5.43583068,107.934002 4.81067026,108.11 4.092,108.11 C3.39532985,108.11 2.7903359,107.959668 2.277,107.659 C1.7636641,107.358332 1.36766806,106.925669 1.089,106.361 C0.81033194,105.796331 0.671,105.13267 0.671,104.37 C0.671,103.60733 0.81033194,102.943669 1.089,102.379 C1.36766806,101.814331 1.7636641,101.381668 2.277,101.081 C2.7903359,100.780332 3.39166322,100.63 4.081,100.63 C4.80700363,100.63 5.41749752,100.780332 5.9125,101.081 C6.40750247,101.381668 6.7649989,101.82533 6.985,102.412 L5.874,102.907 C5.7273326,102.474331 5.51466806,102.157168 5.236,101.9555 C4.95733194,101.753832 4.59433557,101.653 4.147,101.653 C3.46499659,101.653 2.92050204,101.893164 2.5135,102.3735 C2.10649796,102.853836 1.903,103.519329 1.903,104.37 C1.903,105.228004 2.09733139,105.895331 2.486,106.372 C2.87466861,106.848669 3.41366322,107.087 4.103,107.087 C4.57233568,107.087 4.9664984,106.969668 5.2855,106.735 C5.60450159,106.500332 5.83366597,106.155669 5.973,105.701 L7.095,106.075 Z M12.705,106.097 L9.647,106.097 L8.954,108 L7.744,108 L10.483,100.74 L11.891,100.74 L14.63,108 L13.387,108 L12.705,106.097 Z M12.353,105.14 L11.517,102.808 L11.187,101.763 L11.154,101.763 L10.846,102.786 L9.988,105.14 L12.353,105.14 Z M23.342,108 L22.264,108 L22.264,103.798 L22.341,101.796 L22.33,101.796 L20.119,108 L19.14,108 L16.929,101.796 L16.918,101.796 L17.006,103.798 L17.006,108 L15.917,108 L15.917,100.74 L17.666,100.74 L19.129,104.942 L19.635,106.669 L19.657,106.669 L20.174,104.942 L21.626,100.74 L23.342,100.74 L23.342,108 Z M28.292,100.74 C29.0766706,100.74 29.6981644,100.941665 30.1565,101.345 C30.6148356,101.748335 30.844,102.301996 30.844,103.006 C30.844,103.710004 30.6148356,104.261831 30.1565,104.6615 C29.6981644,105.061169 29.0766706,105.261 28.292,105.261 L26.675,105.261 L26.675,108 L25.498,108 L25.498,100.74 L28.292,100.74 Z M28.105,104.26 C28.6183359,104.26 28.9996654,104.155501 29.249,103.9465 C29.4983346,103.737499 29.623,103.424002 29.623,103.006 C29.623,102.162662 29.1170051,101.741 28.105,101.741 L26.675,101.741 L26.675,104.26 L28.105,104.26 Z M33.572,108 L32.395,108 L32.395,100.74 L33.572,100.74 L33.572,108 Z M41.679,108 L40.282,108 L37.477,103.424 L36.773,102.082 L36.762,102.082 L36.806,103.314 L36.806,108 L35.728,108 L35.728,100.74 L37.114,100.74 L39.908,105.305 L40.623,106.658 L40.634,106.658 L40.59,105.426 L40.59,100.74 L41.679,100.74 L41.679,108 Z M49.907,104.249 L49.907,108 L49.038,108 L49.005,107.076 C48.7923323,107.406002 48.4990019,107.660832 48.125,107.8405 C47.7509981,108.020168 47.3036693,108.11 46.783,108.11 C46.10833,108.11 45.5180025,107.959668 45.012,107.659 C44.5059975,107.358332 44.1136681,106.927503 43.835,106.3665 C43.5563319,105.805497 43.417,105.140004 43.417,104.37 C43.417,103.60733 43.5599986,102.945503 43.846,102.3845 C44.1320014,101.823497 44.5353307,101.390835 45.056,101.0865 C45.5766693,100.782165 46.1816632,100.63 46.871,100.63 C47.6190037,100.63 48.2349976,100.769332 48.719,101.048 C49.2030024,101.326668 49.5843319,101.75933 49.863,102.346 L48.785,102.863 C48.645666,102.466998 48.4110016,102.166334 48.081,101.961 C47.7509983,101.755666 47.3550023,101.653 46.893,101.653 C46.2036632,101.653 45.6573353,101.891331 45.254,102.368 C44.8506646,102.844669 44.649,103.511996 44.649,104.37 C44.649,105.242671 44.8414981,105.915498 45.2265,106.3885 C45.6115019,106.861502 46.1743296,107.098 46.915,107.098 C47.4943362,107.098 47.9636649,106.955001 48.323,106.669 C48.6823351,106.382999 48.862,105.968669 48.862,105.426 L48.862,105.217 L46.64,105.217 L46.64,104.249 L49.907,104.249 Z M58.245,108 L56.87,108 L54.175,100.74 L55.429,100.74 L57.123,105.569 L57.563,107.01 L58.003,105.58 L59.697,100.74 L60.94,100.74 L58.245,108 Z M67.672,106.988 L67.672,108 L62.26,108 L62.26,100.74 L67.518,100.74 L67.518,101.752 L63.437,101.752 L63.437,103.842 L66.627,103.842 L66.627,104.832 L63.437,104.832 L63.437,106.988 L67.672,106.988 Z M75.207,100.74 L75.207,108 L74.019,108 L74.019,104.832 L70.433,104.832 L70.433,108 L69.256,108 L69.256,100.74 L70.433,100.74 L70.433,103.82 L74.019,103.82 L74.019,100.74 L75.207,100.74 Z M78.529,108 L77.352,108 L77.352,100.74 L78.529,100.74 L78.529,108 Z M86.702,106.075 C86.4819989,106.72767 86.1061693,107.229998 85.5745,107.582 C85.0428307,107.934002 84.4176703,108.11 83.699,108.11 C83.0023298,108.11 82.3973359,107.959668 81.884,107.659 C81.3706641,107.358332 80.9746681,106.925669 80.696,106.361 C80.4173319,105.796331 80.278,105.13267 80.278,104.37 C80.278,103.60733 80.4173319,102.943669 80.696,102.379 C80.9746681,101.814331 81.3706641,101.381668 81.884,101.081 C82.3973359,100.780332 82.9986632,100.63 83.688,100.63 C84.4140036,100.63 85.0244975,100.780332 85.5195,101.081 C86.0145025,101.381668 86.3719989,101.82533 86.592,102.412 L85.481,102.907 C85.3343326,102.474331 85.1216681,102.157168 84.843,101.9555 C84.5643319,101.753832 84.2013356,101.653 83.754,101.653 C83.0719966,101.653 82.527502,101.893164 82.1205,102.3735 C81.713498,102.853836 81.51,103.519329 81.51,104.37 C81.51,105.228004 81.7043314,105.895331 82.093,106.372 C82.4816686,106.848669 83.0206632,107.087 83.71,107.087 C84.1793357,107.087 84.5734984,106.969668 84.8925,106.735 C85.2115016,106.500332 85.440666,106.155669 85.58,105.701 L86.702,106.075 Z M93.39,106.988 L93.39,108 L88.209,108 L88.209,100.74 L89.386,100.74 L89.386,106.988 L93.39,106.988 Z M100.21,106.988 L100.21,108 L94.798,108 L94.798,100.74 L100.056,100.74 L100.056,101.752 L95.975,101.752 L95.975,103.842 L99.165,103.842 L99.165,104.832 L95.975,104.832 L95.975,106.988 L100.21,106.988 Z M108.097,105.096 L106.535,105.096 L106.535,108 L105.369,108 L105.369,100.74 L108.328,100.74 C109.112671,100.74 109.732331,100.932498 110.187,101.3175 C110.641669,101.702502 110.869,102.235997 110.869,102.918 C110.869,103.438669 110.735168,103.873165 110.4675,104.2215 C110.199832,104.569835 109.820336,104.817333 109.329,104.964 L111.298,108 L109.945,108 L108.097,105.096 Z M106.535,104.117 L108.229,104.117 C108.705669,104.117 109.061332,104.019834 109.296,103.8255 C109.530668,103.631166 109.648,103.332335 109.648,102.929 C109.648,102.525665 109.530668,102.226834 109.296,102.0325 C109.061332,101.838166 108.705669,101.741 108.229,101.741 L106.535,101.741 L106.535,104.117 Z M118.173,106.988 L118.173,108 L112.761,108 L112.761,100.74 L118.019,100.74 L118.019,101.752 L113.938,101.752 L113.938,103.842 L117.128,103.842 L117.128,104.832 L113.938,104.832 L113.938,106.988 L118.173,106.988 Z M125.708,108 L124.311,108 L121.506,103.424 L120.802,102.082 L120.791,102.082 L120.835,103.314 L120.835,108 L119.757,108 L119.757,100.74 L121.143,100.74 L123.937,105.305 L124.652,106.658 L124.663,106.658 L124.619,105.426 L124.619,100.74 L125.708,100.74 L125.708,108 Z M133.254,101.752 L130.768,101.752 L130.768,108 L129.591,108 L129.591,101.752 L127.105,101.752 L127.105,100.74 L133.254,100.74 L133.254,101.752 Z M137.775,106.097 L134.717,106.097 L134.024,108 L132.814,108 L135.553,100.74 L136.961,100.74 L139.7,108 L138.457,108 L137.775,106.097 Z M137.423,105.14 L136.587,102.808 L136.257,101.763 L136.224,101.763 L135.916,102.786 L135.058,105.14 L137.423,105.14 Z M146.168,106.988 L146.168,108 L140.987,108 L140.987,100.74 L142.164,100.74 L142.164,106.988 L146.168,106.988 Z M150.051,100.63 C150.718337,100.63 151.288498,100.750999 151.7615,100.993 C152.234502,101.235001 152.632332,101.605331 152.955,102.104 L152.064,102.907 C151.858666,102.466998 151.602002,102.148001 151.294,101.95 C150.985998,101.751999 150.575336,101.653 150.062,101.653 C149.555997,101.653 149.163668,101.753832 148.885,101.9555 C148.606332,102.157168 148.467,102.415665 148.467,102.731 C148.467,103.024335 148.602665,103.257166 148.874,103.4295 C149.145335,103.601834 149.62933,103.750333 150.326,103.875 C150.97867,103.992334 151.497498,104.140832 151.8825,104.3205 C152.267502,104.500168 152.547999,104.723832 152.724,104.9915 C152.900001,105.259168 152.988,105.590998 152.988,105.987 C152.988,106.412335 152.867001,106.786332 152.625,107.109 C152.382999,107.431668 152.043836,107.679166 151.6075,107.8515 C151.171164,108.023834 150.667003,108.11 150.095,108.11 C148.620993,108.11 147.57967,107.618672 146.971,106.636 L147.796,105.811 C148.030668,106.251002 148.333165,106.573666 148.7035,106.779 C149.073835,106.984334 149.533997,107.087 150.084,107.087 C150.604669,107.087 151.013499,106.997168 151.3105,106.8175 C151.607501,106.637832 151.756,106.383002 151.756,106.053 C151.756,105.788999 151.622168,105.576334 151.3545,105.415 C151.086832,105.253666 150.619337,105.110667 149.952,104.986 C149.284663,104.861333 148.753002,104.707334 148.357,104.524 C147.960998,104.340666 147.673168,104.113335 147.4935,103.842 C147.313832,103.570665 147.224,103.240669 147.224,102.852 C147.224,102.441331 147.337666,102.067335 147.565,101.73 C147.792334,101.392665 148.120498,101.125001 148.5495,100.927 C148.978502,100.728999 149.478997,100.63 150.051,100.63 Z" id="path-1"></path>
        <path d="M13.53,87.53 L6.69,87.53 L5.31,92 L0.12,92 L7.08,72.2 L13.26,72.2 L20.19,92 L14.88,92 L13.53,87.53 Z M12.45,84.02 L11.01,79.28 L10.14,76.16 L10.08,76.16 L9.27,79.25 L7.77,84.02 L12.45,84.02 Z M39.03,83.93 C39.03,86.7100139 38.2900074,88.799993 36.81,90.2 C35.33,91.600007 33.1200147,92.3 30.18,92.3 C27.2599854,92.3 25.0550075,91.600007 23.565,90.2 C22.0749926,88.799993 21.33,86.7100139 21.33,83.93 L21.33,72.2 L26.52,72.2 L26.52,84.02 C26.52,85.4400071 26.819997,86.4999965 27.42,87.2 C28.020003,87.9000035 28.9399938,88.25 30.18,88.25 C32.6600124,88.25 33.9,86.8400141 33.9,84.02 L33.9,72.2 L39.03,72.2 L39.03,83.93 Z M60.63,86.33 C60.0699972,88.33001 59.0300076,89.824995 57.51,90.815 C55.9899924,91.8050049 54.1400109,92.3 51.96,92.3 C49.95999,92.3 48.2300073,91.895004 46.77,91.085 C45.3099927,90.274996 44.1900039,89.1050077 43.41,87.575 C42.6299961,86.0449924 42.24,84.2200106 42.24,82.1 C42.24,79.9999895 42.6299961,78.1800077 43.41,76.64 C44.1900039,75.0999923 45.3099927,73.925004 46.77,73.115 C48.2300073,72.304996 49.9499901,71.9 51.93,71.9 C54.0900108,71.9 55.9199925,72.3549955 57.42,73.265 C58.9200075,74.1750045 59.9099976,75.5399909 60.39,77.36 L55.86,79.19 C55.5799986,77.989994 55.1500029,77.1500024 54.57,76.67 C53.9899971,76.1899976 53.1700053,75.95 52.11,75.95 C50.6499927,75.95 49.520004,76.4749948 48.72,77.525 C47.919996,78.5750053 47.52,80.09999 47.52,82.1 C47.52,84.10001 47.9049962,85.6249947 48.675,86.675 C49.4450038,87.7250053 50.5599927,88.25 52.02,88.25 C53.1200055,88.25 53.9899968,87.9900026 54.63,87.47 C55.2700032,86.9499974 55.7099988,86.1300056 55.95,85.01 L60.63,86.33 Z M74.85,87.53 L68.01,87.53 L66.63,92 L61.44,92 L68.4,72.2 L74.58,72.2 L81.51,92 L76.2,92 L74.85,87.53 Z M73.77,84.02 L72.33,79.28 L71.46,76.16 L71.4,76.16 L70.59,79.25 L69.09,84.02 L73.77,84.02 Z M92.91,72.2 C95.3700123,72.2 97.2599934,72.7649943 98.58,73.895 C99.9000066,75.0250056 100.56,76.6499894 100.56,78.77 C100.56,80.7900101 99.9000066,82.3549944 98.58,83.465 C97.2599934,84.5750056 95.3700123,85.13 92.91,85.13 L88.98,85.13 L88.98,92 L83.82,92 L83.82,72.2 L92.91,72.2 Z M92.1,81.35 C93.2200056,81.35 94.0449973,81.1350022 94.575,80.705 C95.1050026,80.2749979 95.37,79.6100045 95.37,78.71 C95.37,77.8299956 95.1050026,77.1750021 94.575,76.745 C94.0449973,76.3149978 93.2200056,76.1 92.1,76.1 L88.98,76.1 L88.98,81.35 L92.1,81.35 Z M109.02,92 L103.86,92 L103.86,72.2 L109.02,72.2 L109.02,92 Z M131.25,92 L125.52,92 L119.37,81.29 L117.87,78.29 L117.84,78.29 L117.96,82.01 L117.96,92 L113.4,92 L113.4,72.2 L119.13,72.2 L125.28,82.91 L126.78,85.91 L126.81,85.91 L126.69,82.19 L126.69,72.2 L131.25,72.2 L131.25,92 Z M146.97,87.53 L140.13,87.53 L138.75,92 L133.56,92 L140.52,72.2 L146.7,72.2 L153.63,92 L148.32,92 L146.97,87.53 Z M145.89,84.02 L144.45,79.28 L143.58,76.16 L143.52,76.16 L142.71,79.25 L141.21,84.02 L145.89,84.02 Z" id="path-2"></path>
    </defs>
    <g id="Page-1" stroke="none" stroke-width="1" fill="none" fill-rule="evenodd">
        <g id="logo-footer" transform="translate(0.000000, -1.000000)">
            <g id="CAMPINGVEHICLERENTALS" opacity="0.6" fill-rule="nonzero">
                <use fill="#000000" xlink:href="#path-1"></use>
                <use fill="#FFFFFF" xlink:href="#path-1"></use>
            </g>
            <g id="AUCAPINA" fill-rule="nonzero">
                <use fill="#000000" xlink:href="#path-2"></use>
                <use fill="#FFFFFF" xlink:href="#path-2"></use>
            </g>
            <path d="M10.239,23.01 L17.064,23.876 L18.138,20.034 L15.722,19.328 L17.712,13.772 L19.869,13.66 L19.061,7.134 L22.408,9.914 L23.656,10.95 L27.075,13.843 L26.147,12.253 L26.914,12.253 L26.2,11.008 L28.625,11.063 L25.814,23.272 L29.001,16.082 L29.904,16.082 L31.091,12.703 L38.185,17.419 L50.306,3.176 L52.207,10.95 L51.256,13.843 L53.35,23.272 L59.914,24.273 L61.483,28.226 L67.892,28.226 L71.04,29.152 L72.723,30.435 L72.992,30.435 L50.312,2.288 L45.417,8.04 L43.86,6.201 L41.623,6.201 L37.385,3.116 L36.014,3.116 L33.574,0.985 L29.606,4.96 L27.863,4.96 L22.836,9.526 L18.959,6.308 L15.23,11.394 L13.562,12.247 L0.997,30.253 L10.239,23.01 Z M28.084,5.531 L29.842,5.531 L33.585,1.783 L30.927,6.544 L29.48,6.931 L28.453,8.758 L25.596,10.409 L23.867,10.383 L23.349,9.952 L23.279,9.895 L28.084,5.531 Z" id="Shape" fill="#1CB6E2"></path>
            <path d="M52.75,48.039 L51.125,48.039 C51.125,49.876 49.667,51.371 47.875,51.371 C46.082,51.371 44.625,49.876 44.625,48.039 L26.75,48.039 C26.75,49.876 25.292,51.371 23.5,51.371 C21.707,51.371 20.25,49.876 20.25,48.039 C18.457,48.039 17,46.543 17,44.704 L17,29.704 C17,27.865 18.457,26.37 20.25,26.37 L29.039,26.37 L41.902,21.421 C42.1054882,21.345888 42.3305699,21.3553132 42.5270662,21.4471743 C42.7235626,21.5390354 42.8751377,21.7056954 42.948,21.91 C43.1071388,22.337306 42.8963183,22.8135385 42.473,22.983 L41.375,23.405 L41.375,26.37 L48.248,26.37 C49.843,26.37 51.191,27.541 51.453,29.155 L52.625,36.37 L52.75,36.37 C54.542,36.37 56,37.866 56,39.705 L56,44.704 C56,46.543 54.542,48.039 52.75,48.039 L52.75,48.039 Z M47.875,49.706 C48.771,49.706 49.5,48.956 49.5,48.039 C49.5,47.12 48.771,46.371 47.875,46.371 C46.979,46.371 46.25,47.12 46.25,48.039 C46.25,48.956 46.979,49.706 47.875,49.706 Z M23.5,49.706 C24.396,49.706 25.125,48.956 25.125,48.039 C25.125,47.12 24.396,46.371 23.5,46.371 C22.604,46.371 21.875,47.12 21.875,48.039 C21.875,48.956 22.604,49.706 23.5,49.706 Z M26.75,31.37 L21.875,31.37 L21.875,36.37 L26.75,36.37 L26.75,31.37 Z M30,41.371 L18.625,41.371 L18.625,43.038 L30,43.038 L30,41.371 Z M31.625,46.371 L38.125,46.371 L38.125,31.37 L31.625,31.37 L31.625,46.371 Z M39.75,24.032 L33.669,26.37 L39.75,26.37 L39.75,24.032 Z M46.871,31.37 L43,31.37 L43,36.37 L47.684,36.37 L46.871,31.37 L46.871,31.37 Z M54.375,41.371 L39.75,41.371 L39.75,43.038 L54.375,43.038 L54.375,41.371 Z M36.5,39.705 C36.0452956,39.6989634 35.6814412,39.3257105 35.687,38.871 C35.687,38.411 36.051,38.038 36.5,38.038 C36.949,38.038 37.312,38.411 37.312,38.871 C37.312,39.331 36.949,39.705 36.5,39.705 Z" id="Shape" fill="#1CB6E2"></path>
        </g>
    </g>
</svg>